# xmcd CD database file
#
# Track frame offsets:
#	150
#	36525
#	50320
#	82268
#	109760
#	131888
#	162013
#
# Disc length: 3074 seconds
#
# Revision: 0
# Processed by: cddbd v1.5.1PL0 Copyright (c) Steve Scherf et al.
# Submitted via: CDex 1.51
#
DISCID=5e0c0007
DTITLE=Glenn Ferris - Flesh and Stone
DYEAR=1994
DGENRE=Jazz
TTITLE0=Neurock N' Roll
TTITLE1=Azure
TTITLE2=Ahfra Love
TTITLE3=Django
TTITLE4=Sticky And Fudge
TTITLE5=Burning Bush
TTITLE6=Flesh And Stone
EXTD=YEAR: 1994
EXTT0=
EXTT1=
EXTT2=
EXTT3=
EXTT4=
EXTT5=
EXTT6=
PLAYORDER=
